<svg width="38" height="38" fill="none" xmlns="http://www.w3.org/2000/svg"><path d="M23.43 10.13c.83 0 1.52.53 1.79 1.27h6.56a1.9 1.9 0 110 1.27h-6.56a1.9 1.9 0 11-1.79-2.54zm10.14 2.54a.63.63 0 100-1.27.63.63 0 000 1.27zm-10.14 0a.63.63 0 100-1.27.63.63 0 000 1.27z" fill="#00B2FF"/><path d="M18.37 14.05v-3.92c0-.17.06-.33.18-.44l2.54-2.54a.63.63 0 01.44-.18h2.02a1.9 1.9 0 110 1.26H21.8l-2.17 2.17v3.65a1.9 1.9 0 11-1.26 0zm6.96-5.82a.63.63 0 100-1.26.63.63 0 000 1.26zM19 16.47a.63.63 0 100-1.27.63.63 0 000 1.27zM6.97 16.47c.29 0 .56.07.81.19l1.09-1.09V9.5c0-.17.06-.33.18-.45l6.34-6.34a1.9 1.9 0 111.7 1.09c-.28 0-.56-.07-.8-.2l-6.16 6.16v6.07c0 .17-.06.33-.18.45l-1.27 1.27a1.9 1.9 0 11-1.7-1.09zM17.1 2.53a.63.63 0 100-1.26.63.63 0 000 1.26zM6.97 19a.63.63 0 100-1.27.63.63 0 000 1.27zM1.27 8.98V6.33c0-.17.06-.33.18-.44L5.9 1.45a.63.63 0 01.44-.18h3.29a1.9 1.9 0 110 1.26H6.6L2.53 6.6v2.38a1.9 1.9 0 11-1.26 0zM11.4 2.53a.63.63 0 100-1.26.63.63 0 000 1.26zM1.9 11.4a.63.63 0 100-1.27.63.63 0 000 1.27zM10.13 34.32v-9.1a1.9 1.9 0 112.42-2.42h6.57a1.9 1.9 0 011.78-1.27c.82 0 1.52.53 1.78 1.27h3.66l2.35-2.35a1.9 1.9 0 111.7 1.09c-.28 0-.56-.08-.8-.2l-2.54 2.54a.63.63 0 01-.45.19h-3.92a1.9 1.9 0 01-1.78 1.26 1.9 1.9 0 01-1.78-1.26h-6.57c-.2.53-.61.96-1.15 1.15v9.1a1.9 1.9 0 11-1.27 0zM30.4 20.27a.63.63 0 100-1.27.63.63 0 000 1.27zm-9.5 3.8a.63.63 0 100-1.27.63.63 0 000 1.27zM10.77 36.73a.63.63 0 100-1.27.63.63 0 000 1.27zm0-12.66a.63.63 0 100-1.27.63.63 0 000 1.27z" fill="#00B2FF"/><path d="M13.3 12.78v-2.01c0-.17.07-.33.19-.45l7.6-7.6A1.9 1.9 0 0122.79 0c.83-.01 1.53.52 1.8 1.26h2.64c.35 0 .64.28.64.63v1.64l2.35 2.35a1.9 1.9 0 11-1.09 1.7c0-.28.07-.56.2-.8l-2.54-2.54a.63.63 0 01-.19-.45V2.53h-2.02a1.9 1.9 0 01-2.6 1.08l-7.41 7.42v1.75a1.9 1.9 0 11-1.27 0zm17.73-4.55a.63.63 0 100-1.26.63.63 0 000 1.26zm-8.23-5.7a.63.63 0 100-1.26.63.63 0 000 1.26zM13.93 15.2a.63.63 0 100-1.27.63.63 0 000 1.27z" fill="#00B2FF"/><path d="M15.2 17.73c.82 0 1.52.53 1.78 1.27h7.46l3.61-3.61a.63.63 0 01.45-.19h6.7l1.53-1.53V8.5l-4.88-4.9c-.25.13-.52.2-.82.2a1.9 1.9 0 111.9-1.9c0 .3-.07.57-.19.81l5.07 5.08c.12.11.19.27.19.44v5.7c0 .17-.07.33-.19.45l-1.9 1.9a.63.63 0 01-.44.19h-6.7l-3.62 3.61a.63.63 0 01-.45.19h-7.72a1.9 1.9 0 11-1.78-2.54zM31.03 1.27a.63.63 0 100 1.26.63.63 0 000-1.26zm-15.83 19a.63.63 0 100-1.27.63.63 0 000 1.27zM1.9 15.2c.3 0 .57.07.81.19l2.36-2.35V9.38a1.9 1.9 0 111.26 0v3.92c0 .17-.06.33-.18.45L3.6 16.29a1.87 1.87 0 01-1.08 2.6v.48l4.88 4.88c.12.12.2.28.2.45v.75a1.9 1.9 0 011.26 1.78 1.9 1.9 0 01-1.27 1.79v1.5a1.9 1.9 0 11-1.27 0v-1.5a1.9 1.9 0 01-1.26-1.79c0-.82.53-1.52 1.26-1.78v-.49l-4.88-4.88a.63.63 0 01-.18-.45v-.75a1.9 1.9 0 01.63-3.68zm3.8-6.97a.63.63 0 100-1.26.63.63 0 000 1.26zm1.27 24.7a.63.63 0 100-1.27.63.63 0 000 1.27zm0-5.06a.63.63 0 100-1.27.63.63 0 000 1.27zM1.9 17.73a.63.63 0 100-1.26.63.63 0 000 1.26z" fill="#00B2FF"/></svg>