<svg xmlns="http://www.w3.org/2000/svg" xmlns:xlink="http://www.w3.org/1999/xlink"><symbol id="big-background" viewBox="0 0 1892 1644">
<path d="M1312.62 789.625L836.874 1064.3L836.874 514.95L1312.62 789.625Z" stroke="#EBEBEB"/>
<circle cx="836.739" cy="514.198" r="5" transform="rotate(30 836.739 514.198)" fill="#F2F2F2"/>
<circle cx="836.896" cy="1063.93" r="5" transform="rotate(30 836.896 1063.93)" fill="#F2F2F2"/>
<path d="M297.208 812.738L297.208 1362.09L-178.543 1087.41L297.208 812.738Z" stroke="#EBEBEB"/>
<circle cx="296.896" cy="1361.88" r="5" transform="rotate(-30 296.896 1361.88)" fill="#F2F2F2"/>
<path d="M1668.56 926.777L1668.56 670.381L1890.61 798.579L1668.56 926.777Z" stroke="#EBEBEB"/>
<circle cx="297.053" cy="812.154" r="5" transform="rotate(-30 297.053 812.154)" fill="#F2F2F2"/>
<circle cx="1313.05" cy="789.198" r="5" transform="rotate(30 1313.05 789.198)" fill="#F2F2F2"/>
<path d="M425.594 254.381L425.594 510.777L203.549 382.579L425.594 254.381Z" stroke="#EBEBEB"/>
</symbol><symbol id="brain"><path d="M23.43 10.13c.83 0 1.52.53 1.79 1.27h6.56a1.9 1.9 0 110 1.27h-6.56a1.9 1.9 0 11-1.79-2.54zm10.14 2.54a.63.63 0 100-1.27.63.63 0 000 1.27zm-10.14 0a.63.63 0 100-1.27.63.63 0 000 1.27z" fill="#00B2FF"/><path d="M18.37 14.05v-3.92c0-.17.06-.33.18-.44l2.54-2.54a.63.63 0 01.44-.18h2.02a1.9 1.9 0 110 1.26H21.8l-2.17 2.17v3.65a1.9 1.9 0 11-1.26 0zm6.96-5.82a.63.63 0 100-1.26.63.63 0 000 1.26zM19 16.47a.63.63 0 100-1.27.63.63 0 000 1.27zM6.97 16.47c.29 0 .56.07.81.19l1.09-1.09V9.5c0-.17.06-.33.18-.45l6.34-6.34a1.9 1.9 0 111.7 1.09c-.28 0-.56-.07-.8-.2l-6.16 6.16v6.07c0 .17-.06.33-.18.45l-1.27 1.27a1.9 1.9 0 11-1.7-1.09zM17.1 2.53a.63.63 0 100-1.26.63.63 0 000 1.26zM6.97 19a.63.63 0 100-1.27.63.63 0 000 1.27zM1.27 8.98V6.33c0-.17.06-.33.18-.44L5.9 1.45a.63.63 0 01.44-.18h3.29a1.9 1.9 0 110 1.26H6.6L2.53 6.6v2.38a1.9 1.9 0 11-1.26 0zM11.4 2.53a.63.63 0 100-1.26.63.63 0 000 1.26zM1.9 11.4a.63.63 0 100-1.27.63.63 0 000 1.27zM10.13 34.32v-9.1a1.9 1.9 0 112.42-2.42h6.57a1.9 1.9 0 011.78-1.27c.82 0 1.52.53 1.78 1.27h3.66l2.35-2.35a1.9 1.9 0 111.7 1.09c-.28 0-.56-.08-.8-.2l-2.54 2.54a.63.63 0 01-.45.19h-3.92a1.9 1.9 0 01-1.78 1.26 1.9 1.9 0 01-1.78-1.26h-6.57c-.2.53-.61.96-1.15 1.15v9.1a1.9 1.9 0 11-1.27 0zM30.4 20.27a.63.63 0 100-1.27.63.63 0 000 1.27zm-9.5 3.8a.63.63 0 100-1.27.63.63 0 000 1.27zM10.77 36.73a.63.63 0 100-1.27.63.63 0 000 1.27zm0-12.66a.63.63 0 100-1.27.63.63 0 000 1.27z" fill="#00B2FF"/><path d="M13.3 12.78v-2.01c0-.17.07-.33.19-.45l7.6-7.6A1.9 1.9 0 0122.79 0c.83-.01 1.53.52 1.8 1.26h2.64c.35 0 .64.28.64.63v1.64l2.35 2.35a1.9 1.9 0 11-1.09 1.7c0-.28.07-.56.2-.8l-2.54-2.54a.63.63 0 01-.19-.45V2.53h-2.02a1.9 1.9 0 01-2.6 1.08l-7.41 7.42v1.75a1.9 1.9 0 11-1.27 0zm17.73-4.55a.63.63 0 100-1.26.63.63 0 000 1.26zm-8.23-5.7a.63.63 0 100-1.26.63.63 0 000 1.26zM13.93 15.2a.63.63 0 100-1.27.63.63 0 000 1.27z" fill="#00B2FF"/><path d="M15.2 17.73c.82 0 1.52.53 1.78 1.27h7.46l3.61-3.61a.63.63 0 01.45-.19h6.7l1.53-1.53V8.5l-4.88-4.9c-.25.13-.52.2-.82.2a1.9 1.9 0 111.9-1.9c0 .3-.07.57-.19.81l5.07 5.08c.12.11.19.27.19.44v5.7c0 .17-.07.33-.19.45l-1.9 1.9a.63.63 0 01-.44.19h-6.7l-3.62 3.61a.63.63 0 01-.45.19h-7.72a1.9 1.9 0 11-1.78-2.54zM31.03 1.27a.63.63 0 100 1.26.63.63 0 000-1.26zm-15.83 19a.63.63 0 100-1.27.63.63 0 000 1.27zM1.9 15.2c.3 0 .57.07.81.19l2.36-2.35V9.38a1.9 1.9 0 111.26 0v3.92c0 .17-.06.33-.18.45L3.6 16.29a1.87 1.87 0 01-1.08 2.6v.48l4.88 4.88c.12.12.2.28.2.45v.75a1.9 1.9 0 011.26 1.78 1.9 1.9 0 01-1.27 1.79v1.5a1.9 1.9 0 11-1.27 0v-1.5a1.9 1.9 0 01-1.26-1.79c0-.82.53-1.52 1.26-1.78v-.49l-4.88-4.88a.63.63 0 01-.18-.45v-.75a1.9 1.9 0 01.63-3.68zm3.8-6.97a.63.63 0 100-1.26.63.63 0 000 1.26zm1.27 24.7a.63.63 0 100-1.27.63.63 0 000 1.27zm0-5.06a.63.63 0 100-1.27.63.63 0 000 1.27zM1.9 17.73a.63.63 0 100-1.26.63.63 0 000 1.26z" fill="#00B2FF"/></symbol><symbol id="check" viewBox="0 0 9 6">
<path d="M0.5 2L3.5 5L8 0.5" stroke="white"/>
</symbol><symbol id="detective"><path d="M18 9.76a.7.7 0 00-.7.7c0 .4.31.71.7.71a.7.7 0 00.7-.7.7.7 0 00-.7-.71z" fill="#00B2FF"/><path d="M33.9 14h-2.75C29.71 9.87 27.62 2.6 23.83.54c-1.9-1.03-3.69-.31-4.36 1.15a1.6 1.6 0 01-1.47.94 1.6 1.6 0 01-1.47-.94c-.65-1.41-2.4-2.2-4.23-1.3-3.85 1.88-6 9.45-7.45 13.63H2.1a2.12 2.12 0 000 4.25h31.78c1.17 0 2.11-.96 2.11-2.13s-.95-2.12-2.1-2.12zM7.31 11.18h7.87a.7.7 0 00.7-.7.7.7 0 00-.7-.71H7.8c2.12-5.9 4.1-7.61 5.1-8.1 1.11-.55 2.02-.1 2.35.62A3 3 0 0018 4.04a3 3 0 002.74-1.76c.34-.73 1.25-1.14 2.42-.5 1.02.55 3 2.32 5.03 7.98h-7.38a.7.7 0 00-.7.7c0 .4.31.71.7.71h7.88l.97 2.84H6.34l.98-2.84zm26.57 5.67H2.11a.7.7 0 01-.7-.7c0-.4.31-.72.7-.72h31.78c.39 0 .7.32.7.71 0 .4-.31.7-.7.7zM16.6 21.09H5.33a.7.7 0 00-.7.7v2.84a6.32 6.32 0 0012.24 2.27c.71-.33 1.53-.33 2.24 0a6.32 6.32 0 0012.24-2.27V21.8a.7.7 0 00-.7-.71H19.4a.7.7 0 00-.7.7v.71H17.3v-.7a.7.7 0 00-.7-.71zm-5.63 8.5a4.94 4.94 0 01-4.92-4.96V22.5h9.84v2.13c0 2.74-2.2 4.95-4.92 4.95zm9.14-7.09h9.84v2.13a4.93 4.93 0 11-9.84 0V22.5zm-1.4 1.42v.7c0 .23 0 .46.03.68a4.09 4.09 0 00-1.48 0c.02-.22.04-.45.04-.67v-.71h1.4z" fill="#00B2FF"/><path d="M10.97 26.75c-1.16 0-2.11-.95-2.11-2.12a.7.7 0 00-.7-.71.7.7 0 00-.7.7 3.53 3.53 0 003.5 3.55.7.7 0 00.71-.71.7.7 0 00-.7-.7zM25.03 28.17a3.53 3.53 0 003.52-3.54.7.7 0 00-.7-.71.7.7 0 00-.7.7c0 1.18-.96 2.13-2.12 2.13a.7.7 0 00-.7.71c0 .39.31.7.7.7z" fill="#00B2FF"/></symbol><symbol id="envelope"><path d="M16.68 0H2.32C1.04 0 0 1 0 2.25v9.5A2.29 2.29 0 002.32 14h14.36c1.28 0 2.32-1 2.32-2.25v-9.5A2.29 2.29 0 0016.68 0zm1.26 11.75c0 .67-.56 1.22-1.26 1.22H2.32c-.7 0-1.26-.55-1.26-1.22v-9.5c0-.67.57-1.22 1.26-1.22h14.36c.7 0 1.26.55 1.26 1.22v9.5z" fill="#00B2FF"/><path d="M11.98 6.88l4.65-4.03a.5.5 0 00.04-.73.55.55 0 00-.75-.04L9.5 7.65 8.26 6.57v-.01a.78.78 0 00-.1-.07L3.09 2.08a.54.54 0 00-.75.04.5.5 0 00.04.73l4.7 4.07-4.68 4.24a.5.5 0 00-.02.73c.1.1.24.16.39.16.13 0 .26-.04.36-.14l4.75-4.3 1.29 1.11a.54.54 0 00.7 0l1.33-1.15 4.73 4.35c.1.1.23.14.36.14.15 0 .28-.05.39-.16a.5.5 0 00-.02-.73l-4.67-4.29z" fill="#00B2FF"/></symbol><symbol id="fb"><path fill-rule="evenodd" clip-rule="evenodd" d="M27 13.5a13.5 13.5 0 10-27 0 13.5 13.5 0 0027 0zM16.88 9.3h-1.74c-.46 0-.8.4-.8.88v.78h2.5l-.41 2.52h-2.08v6.74H11.8v-6.74h-1.69v-2.52h1.7V9.68c.04-1.47.55-2.86 3.03-2.95h2.04v2.56z" fill="currentColor"/></symbol><symbol id="group"><path opacity=".2" d="M494.359 86.428L277.928 461.296 61.498 86.428h432.861z" stroke="#fff"/><path opacity=".2" d="M273.787 242.705L147.28 461.821 20.774 242.705h253.013z" stroke="#fff"/><circle cx="60.927" cy="85.862" r="3.943" fill="#fff"/><circle cx="20.707" cy="242.797" r="3.943" fill="#fff"/><circle cx="147.675" cy="462.032" r="3.943" fill="#fff"/><circle cx="277.797" cy="461.244" r="3.943" fill="#fff"/></symbol><symbol id="hired"><path d="M31.26 27.9c.38-.53.6-1.16.6-1.85v-4.1c0-.38-.3-.69-.68-.69h-3.06a2.56 2.56 0 00-2.56 2.56v2.23c0 .69.22 1.32.6 1.84a4.4 4.4 0 00-1.34.45 5.82 5.82 0 00-4.3-2.56h-.01a4.02 4.02 0 001.03-2.7V17.5c0-.38-.31-.68-.69-.68H16.7a3.24 3.24 0 00-3.24 3.23v3.03c0 1.04.4 1.98 1.03 2.7h-.02a5.82 5.82 0 00-4.3 2.56 4.4 4.4 0 00-1.33-.45c.38-.52.6-1.15.6-1.84v-4.1c0-.38-.3-.69-.68-.69H5.7a2.56 2.56 0 00-2.56 2.56v2.23c0 .69.22 1.32.6 1.84A4.46 4.46 0 000 32.3v2.03c0 .37.3.68.68.68h33.64c.37 0 .68-.3.68-.68v-2.03a4.46 4.46 0 00-3.74-4.4zM4.51 23.81c0-.66.53-1.2 1.19-1.2h2.37v.84c0 .4-.33.74-.74.74H4.51v-.38zm0 1.75h2.82c.26 0 .51-.05.74-.14v.62a1.78 1.78 0 01-3.56 0v-.48zm2.22 3.63l-.44.44-.44-.44h.88zm2.47 2.36v2.07H1.37V32.3a3.1 3.1 0 012.59-3.05L5.8 31.1a.68.68 0 00.96 0l1.85-1.85c.33.05.64.16.94.31-.24.63-.36 1.3-.36 2.01zm8.3-5.8a2.67 2.67 0 01-2.67-2.68v-.9h4.09c.45 0 .88-.12 1.25-.32v1.22c0 1.47-1.2 2.67-2.67 2.67zm1.2 1.36l-1.2 1.19-1.2-1.2h2.4zm-3.87-7.07c0-1.03.84-1.87 1.87-1.87h3.47v1.38c0 .7-.56 1.25-1.25 1.25h-4.09v-.76zm9.6 13.58H10.57v-1.36h4.45a.68.68 0 100-1.37h-4.4a4.45 4.45 0 013.8-3.74l2.6 2.6a.68.68 0 00.96 0l2.6-2.6a4.45 4.45 0 013.85 4.4v2.07zm2.5-9.8c0-.67.53-1.2 1.2-1.2h2.36v.83c0 .4-.33.74-.74.74h-2.82v-.38zm0 1.74h2.82c.26 0 .51-.05.74-.14v.62a1.78 1.78 0 01-3.56 0v-.48zm2.22 3.63l-.44.44-.44-.44h.88zm-3.35 4.43v-2.07c0-.7-.12-1.38-.36-2 .3-.16.61-.27.94-.32l1.85 1.85a.68.68 0 00.96 0l1.85-1.85a3.1 3.1 0 012.6 3.05v1.34H25.8zM20.87 4.47a.68.68 0 00-.97 0l-3.35 3.35-1.45-1.45a.68.68 0 10-.97.97l1.93 1.93a.68.68 0 00.97 0l3.84-3.84a.68.68 0 000-.96z" fill="#00B2FF"/><path d="M20.3.6a.68.68 0 00-.56 1.24 5.51 5.51 0 11-4.5.01.68.68 0 10-.56-1.24 6.88 6.88 0 002.82 13.13A6.88 6.88 0 0020.3.59z" fill="#00B2FF"/><path d="M17.52 0h-.02a.68.68 0 000 1.37h.02a.68.68 0 000-1.37zM17.98 31.1a.69.69 0 00-.96 0 .69.69 0 000 .97.69.69 0 00.96 0 .69.69 0 000-.97z" fill="#00B2FF"/></symbol><symbol id="logo-site"><path d="M76.94 24.34c0-.73-.2-1.27-.57-1.64a6.22 6.22 0 00-2.01-1.16c-1.78-.67-3.06-1.46-3.85-2.37a4.8 4.8 0 01-1.17-3.22c0-1.5.53-2.7 1.59-3.6a6.02 6.02 0 014.05-1.37c1.1 0 2.07.23 2.92.7a4.7 4.7 0 011.97 1.94c.46.84.7 1.79.7 2.86h-3.59c0-.83-.17-1.47-.53-1.9-.35-.44-.86-.66-1.53-.66a1.9 1.9 0 00-1.46.57c-.35.36-.53.86-.53 1.49 0 .48.2.93.59 1.33.39.39 1.08.8 2.07 1.22 1.74.62 3 1.4 3.77 2.3a5.12 5.12 0 011.19 3.48c0 1.55-.5 2.76-1.48 3.63a5.85 5.85 0 01-4.01 1.3c-1.15 0-2.2-.23-3.14-.7a5.35 5.35 0 01-3.02-5.14h3.6c0 1.02.2 1.77.6 2.23.4.46 1.05.7 1.96.7 1.25 0 1.88-.67 1.88-2zm11.15 4.9a5.41 5.41 0 01-4.15-1.58c-.99-1.06-1.49-2.57-1.49-4.54v-1.05c0-2.09.46-3.7 1.37-4.83a4.74 4.74 0 013.92-1.7c1.66 0 2.9.54 3.75 1.6.83 1.06 1.26 2.64 1.28 4.72v1.7H85.9c.04.97.26 1.69.64 2.14.38.45.97.68 1.77.68 1.16 0 2.12-.4 2.9-1.19l1.35 2.09a4.5 4.5 0 01-1.84 1.43c-.8.36-1.68.53-2.63.53zm-2.17-8.1h3.45v-.32a3.7 3.7 0 00-.39-1.8c-.24-.4-.66-.6-1.27-.6-.6 0-1.04.21-1.31.64a4.52 4.52 0 00-.48 2.08zm15.32-2.02l-1.15-.1c-.94 0-1.58.42-1.91 1.25V29H94.7V15.8h3.26l.1 1.42c.54-1.11 1.3-1.67 2.25-1.67.4 0 .71.05.96.16l-.04 3.41zm6.34 5l1.67-8.33h3.6L109.22 29h-3.3l-3.63-13.2h3.61l1.67 8.32zM118.1 29h-3.47V15.8h3.47V29zm-3.63-16.63c0-.53.17-.97.52-1.31.34-.35.8-.52 1.36-.52.57 0 1.03.17 1.37.52.34.34.51.78.51 1.31s-.17.97-.51 1.32a1.8 1.8 0 01-1.37.53c-.58 0-1.04-.18-1.38-.53-.33-.35-.5-.79-.5-1.32zm11.07 14c1 0 1.51-.65 1.53-1.95h3.25a4.85 4.85 0 01-1.33 3.5c-.87.88-2 1.32-3.37 1.32-1.7 0-3-.52-3.9-1.58-.9-1.06-1.35-2.62-1.36-4.68v-1.05c0-2.07.44-3.66 1.31-4.75.9-1.09 2.2-1.63 3.92-1.63 1.46 0 2.6.45 3.44 1.35.84.9 1.27 2.17 1.29 3.82h-3.25c0-.74-.13-1.3-.37-1.7-.23-.4-.62-.6-1.17-.6-.6 0-1.03.21-1.3.64-.25.43-.4 1.25-.4 2.48v1.34c0 1.08.05 1.83.15 2.26.1.43.28.74.53.94.24.2.59.3 1.03.3zm12.06 2.87a5.41 5.41 0 01-4.15-1.58c-.99-1.06-1.48-2.57-1.48-4.54v-1.05c0-2.09.45-3.7 1.36-4.83a4.74 4.74 0 013.92-1.7c1.66 0 2.91.54 3.75 1.6.84 1.06 1.26 2.64 1.28 4.72v1.7h-6.87c.05.97.26 1.69.64 2.14.39.45.98.68 1.77.68 1.16 0 2.12-.4 2.9-1.19l1.35 2.09a4.5 4.5 0 01-1.84 1.43c-.8.36-1.68.53-2.63.53zm-2.17-8.1h3.46v-.32a3.7 3.7 0 00-.4-1.8c-.24-.4-.66-.6-1.26-.6s-1.05.21-1.32.64a4.5 4.5 0 00-.48 2.08zM150.17 29V11.23h4.7c2.07 0 3.72.66 4.95 1.97 1.24 1.32 1.87 3.13 1.9 5.42v2.88c0 2.34-.63 4.18-1.86 5.51s-2.93 1.99-5.1 1.99h-4.6zm3.58-14.78v11.8h1.08c1.2 0 2.04-.31 2.52-.94.5-.63.75-1.72.78-3.27v-3.09c0-1.66-.24-2.81-.7-3.47-.47-.65-1.25-1-2.37-1.03h-1.3zm15.72 15.02a5.42 5.42 0 01-4.16-1.58c-.99-1.06-1.49-2.57-1.49-4.54v-1.05c0-2.09.46-3.7 1.37-4.83a4.74 4.74 0 013.92-1.7c1.66 0 2.91.54 3.75 1.6.84 1.06 1.26 2.64 1.28 4.72v1.7h-6.87c.05.97.26 1.69.64 2.14.39.45.98.68 1.78.68 1.15 0 2.12-.4 2.89-1.19l1.35 2.09a4.51 4.51 0 01-1.84 1.43c-.8.36-1.68.53-2.63.53zm-2.18-8.1h3.46v-.32a3.7 3.7 0 00-.4-1.8c-.24-.4-.66-.6-1.26-.6s-1.05.21-1.32.64a4.53 4.53 0 00-.48 2.08zm12.97 2.98l1.67-8.33h3.6L181.9 29h-3.3l-3.63-13.2h3.61l1.68 8.32zM190.78 29h-3.47V15.8h3.47V29zm-3.63-16.63c0-.53.17-.97.52-1.31.34-.35.8-.52 1.36-.52.57 0 1.03.17 1.37.52.34.34.51.78.51 1.31s-.17.97-.51 1.32a1.8 1.8 0 01-1.37.53c-.57 0-1.03-.18-1.38-.53-.33-.35-.5-.79-.5-1.32zm11.07 14c1 0 1.51-.65 1.53-1.95H203a4.86 4.86 0 01-1.33 3.5c-.87.88-2 1.32-3.37 1.32-1.7 0-3-.52-3.9-1.58-.9-1.06-1.35-2.62-1.36-4.68v-1.05c0-2.07.44-3.66 1.31-4.75.9-1.09 2.2-1.63 3.92-1.63 1.46 0 2.6.45 3.45 1.35.83.9 1.26 2.17 1.28 3.82h-3.25c0-.74-.13-1.3-.37-1.7-.23-.4-.62-.6-1.17-.6-.6 0-1.03.21-1.3.64-.25.43-.39 1.25-.4 2.48v1.34c0 1.08.05 1.83.15 2.26.1.43.28.74.53.94.24.2.59.3 1.03.3zm12.06 2.87a5.41 5.41 0 01-4.15-1.58c-.99-1.06-1.48-2.57-1.48-4.54v-1.05c0-2.09.45-3.7 1.36-4.83a4.74 4.74 0 013.92-1.7c1.66 0 2.91.54 3.75 1.6.84 1.06 1.26 2.64 1.28 4.72v1.7h-6.87c.05.97.26 1.69.65 2.14.38.45.97.68 1.76.68 1.16 0 2.13-.4 2.9-1.19l1.35 2.09a4.5 4.5 0 01-1.84 1.43 6.4 6.4 0 01-2.63.53zm-2.17-8.1h3.46v-.32a3.69 3.69 0 00-.4-1.8c-.24-.4-.66-.6-1.26-.6s-1.04.21-1.32.64a4.53 4.53 0 00-.48 2.08z" fill="#203C42"/><path d="M70.95 44.96l1.29-4.3h1.51l-2.52 7.3c-.38 1.07-1.04 1.6-1.96 1.6-.21 0-.44-.03-.69-.1v-1.1l.27.01c.36 0 .63-.07.8-.2.2-.13.34-.35.44-.65l.2-.55-2.22-6.31h1.54l1.34 4.3zm7.4.29l1.87-4.59H82V47h-1.43v-4.2L78.83 47h-.97l-1.75-4.22V47h-1.42v-6.34h1.79l1.86 4.59zM88.96 47h-1.42v-2.56h-2.47V47h-1.42v-6.34h1.42v2.64h2.47v-2.64h1.42V47zm3.05-4.32h1.4c.52 0 .97.09 1.36.27a1.97 1.97 0 011.18 1.88c0 .65-.23 1.18-.7 1.57-.45.4-1.06.6-1.83.6H90.6v-6.34h1.42v2.02zM98.44 47h-1.42v-6.34h1.42V47zm-6.42-3.18v2.04h1.4c.34 0 .61-.08.81-.25.2-.18.3-.43.3-.75s-.1-.57-.3-.75c-.19-.2-.45-.29-.79-.3h-1.42zm10.92 3.3c-.9 0-1.63-.29-2.2-.85a3.11 3.11 0 01-.84-2.28v-.17c0-.63.13-1.2.37-1.7s.59-.88 1.03-1.16c.44-.28.93-.42 1.48-.42.86 0 1.53.28 2 .83.47.55.7 1.33.7 2.34v.57h-4.14c.04.52.22.94.52 1.24.31.3.7.46 1.16.46.65 0 1.19-.26 1.6-.79l.76.73c-.25.38-.6.68-1.02.89-.42.2-.9.3-1.42.3zm-.17-5.43c-.4 0-.7.13-.95.4-.24.28-.39.66-.46 1.15h2.72v-.1a1.71 1.71 0 00-.39-1.09 1.18 1.18 0 00-.92-.36zm11.8.1h-2.06V47h-1.42v-5.2h-2.03v-1.14h5.51v1.13zm3.37 5.33c-.9 0-1.63-.29-2.2-.85a3.11 3.11 0 01-.84-2.28v-.17c0-.63.13-1.2.37-1.7s.59-.88 1.03-1.16c.44-.28.93-.42 1.48-.42.86 0 1.53.28 2 .83.47.55.7 1.33.7 2.34v.57h-4.14c.04.52.22.94.52 1.24.31.3.7.46 1.16.46.65 0 1.19-.26 1.6-.79l.76.73c-.25.38-.6.68-1.02.89-.42.2-.9.3-1.42.3zm-.17-5.43c-.4 0-.7.13-.95.4-.24.28-.39.66-.46 1.15h2.72v-.1a1.71 1.71 0 00-.39-1.09 1.18 1.18 0 00-.92-.36zm6.1 1.06l1.2-2.09h1.59l-1.94 3.12 2 3.22h-1.57l-1.26-2.17-1.26 2.17h-1.58l2-3.22-1.94-3.12h1.58l1.18 2.09zM133 47h-1.43v-2.56h-2.46V47h-1.43v-6.34h1.43v2.64h2.46v-2.64H133V47zm1.25-3.23c0-.62.13-1.18.37-1.67.25-.5.6-.89 1.04-1.15.44-.27.96-.4 1.53-.4.86 0 1.55.27 2.08.82.54.55.83 1.28.87 2.19v.33c0 .63-.11 1.19-.36 1.68-.24.5-.58.87-1.03 1.14-.44.27-.96.4-1.54.4-.9 0-1.62-.29-2.16-.88-.53-.6-.8-1.4-.8-2.39v-.07zm1.43.12c0 .66.13 1.17.4 1.54.27.37.64.55 1.13.55.48 0 .85-.19 1.11-.56.27-.38.4-.93.4-1.65a2.5 2.5 0 00-.4-1.52 1.31 1.31 0 00-1.13-.56c-.46 0-.83.18-1.1.55-.28.37-.41.92-.41 1.65zm10.97-3.23V47h-1.43v-5.2h-1.8l-.1 2.22a4.57 4.57 0 01-.63 2.29c-.33.46-.84.69-1.52.69h-.44v-1.18l.28-.03c.32-.05.54-.24.68-.57.15-.34.24-.96.28-1.85l.12-2.71h4.56zm1.24 3.11c0-.62.13-1.18.37-1.67.25-.5.6-.89 1.04-1.15.44-.27.96-.4 1.53-.4.86 0 1.55.27 2.08.82.54.55.83 1.28.87 2.19v.33c0 .63-.11 1.19-.36 1.68-.23.5-.58.87-1.03 1.14-.44.27-.96.4-1.54.4-.9 0-1.62-.29-2.16-.88-.53-.6-.8-1.4-.8-2.39v-.07zm1.43.12c0 .66.13 1.17.4 1.54.27.37.65.55 1.13.55.48 0 .85-.19 1.12-.56.26-.38.4-.93.4-1.65 0-.64-.14-1.15-.42-1.52a1.31 1.31 0 00-1.12-.56c-.46 0-.83.18-1.1.55-.28.37-.41.92-.41 1.65zm9.9-2.08h-2.76V47h-1.42v-6.34h4.17v1.15zm4.76-1.15h1.42V47h-1.42v-4.23L161.49 47h-1.42v-6.34h1.42v4.23l2.49-4.23zm6.89 0h1.41V47h-1.41v-4.23L168.38 47h-1.41v-6.34h1.41v4.23l2.49-4.23z" fill="#788891"/><path d="M32.07 13.87a2.6 2.6 0 012.44 1.73h8.98a2.6 2.6 0 110 1.73h-8.98a2.6 2.6 0 11-2.44-3.46zm13.86 3.46a.87.87 0 100-1.73.87.87 0 000 1.73zm-13.86 0a.87.87 0 100-1.73.87.87 0 000 1.73z" fill="#00B2FF"/><path d="M25.13 19.23v-5.36c0-.23.1-.45.26-.62l3.46-3.46a.86.86 0 01.62-.26h2.76a2.6 2.6 0 110 1.74h-2.4l-2.96 2.96v5a2.6 2.6 0 11-1.74 0zm9.54-7.96a.87.87 0 100-1.74.87.87 0 000 1.74zM26 22.53a.87.87 0 100-1.73.87.87 0 000 1.73zM9.53 22.53c.4 0 .78.1 1.12.26l1.48-1.48V13c0-.23.1-.45.26-.61l8.67-8.68A2.6 2.6 0 1123.4 5.2c-.4 0-.77-.1-1.11-.26l-8.42 8.42v8.3c0 .24-.1.46-.26.62l-1.74 1.74a2.6 2.6 0 11-2.34-1.49zM23.4 3.47a.87.87 0 100-1.74.87.87 0 000 1.74zM9.53 26a.87.87 0 100-1.74.87.87 0 000 1.74zM1.73 12.3V8.66c0-.23.1-.45.26-.62L8.05 2a.86.86 0 01.62-.26h4.49a2.6 2.6 0 110 1.74H9.03L3.47 9.03v3.26a2.6 2.6 0 11-1.74 0zM15.6 3.46a.87.87 0 100-1.74.87.87 0 000 1.74zM2.6 15.6a.87.87 0 100-1.74.87.87 0 000 1.74zM13.87 46.96V34.51a2.6 2.6 0 113.3-3.31h8.99a2.6 2.6 0 012.44-1.73 2.6 2.6 0 012.44 1.73h5l3.22-3.22a2.6 2.6 0 112.34 1.49c-.4 0-.77-.1-1.11-.26L37 32.68a.86.86 0 01-.61.25h-5.36a2.6 2.6 0 01-2.44 1.74 2.6 2.6 0 01-2.44-1.74h-8.99a2.6 2.6 0 01-1.57 1.58v12.45a2.6 2.6 0 11-1.73 0zM41.6 27.73a.87.87 0 100-1.73.87.87 0 000 1.73zm-13 5.2a.87.87 0 100-1.73.87.87 0 000 1.73zM14.73 50.27a.87.87 0 100-1.74.87.87 0 000 1.74zm0-17.34a.87.87 0 100-1.73.87.87 0 000 1.73z" fill="#00B2FF"/><path d="M18.2 17.5v-2.77c0-.23.1-.45.25-.61l10.41-10.4A2.6 2.6 0 0131.2 0a2.6 2.6 0 012.44 1.72h3.63c.48 0 .86.4.86.87v2.24l3.22 3.22a2.6 2.6 0 11-1.49 2.34c0-.4.1-.77.27-1.11L36.65 5.8a.86.86 0 01-.25-.61V3.47h-2.76a2.6 2.6 0 01-3.55 1.47L19.93 15.09v2.4a2.6 2.6 0 11-1.73 0zm24.27-6.23a.87.87 0 100-1.74.87.87 0 000 1.74zM31.2 3.47a.87.87 0 100-1.74.87.87 0 000 1.74zM19.07 20.8a.87.87 0 100-1.74.87.87 0 000 1.74z" fill="#00B2FF"/><path d="M20.8 24.27A2.6 2.6 0 0123.24 26h10.2l4.95-4.95a.86.86 0 01.61-.25h9.17l2.1-2.1v-7.07l-6.69-6.7c-.34.17-.71.27-1.11.27a2.6 2.6 0 112.6-2.6c0 .4-.1.77-.26 1.11l6.94 6.94c.16.17.25.39.25.62v7.8c0 .23-.1.45-.25.6l-2.6 2.6a.86.86 0 01-.62.26h-9.17l-4.95 4.95a.86.86 0 01-.61.25H23.24a2.6 2.6 0 11-2.44-3.46zM42.47 1.73a.87.87 0 100 1.74.87.87 0 000-1.74zm-21.67 26a.87.87 0 100-1.73.87.87 0 000 1.73zM2.6 20.8c.4 0 .77.1 1.11.26l3.22-3.22v-5a2.6 2.6 0 111.74 0v5.36c0 .23-.1.45-.26.61L4.94 22.3a2.56 2.56 0 01-1.47 3.55v.67l6.68 6.68c.16.16.25.38.25.61v1.03a2.6 2.6 0 011.73 2.44 2.6 2.6 0 01-1.73 2.44v2.05a2.6 2.6 0 11-1.73 0v-2.05a2.6 2.6 0 01-1.74-2.44 2.6 2.6 0 011.74-2.44v-.67l-6.68-6.68a.86.86 0 01-.26-.61v-1.03a2.6 2.6 0 01.87-5.04zm5.2-9.53a.87.87 0 100-1.74.87.87 0 000 1.74zm1.73 33.8a.87.87 0 100-1.74.87.87 0 000 1.74zm0-6.94a.87.87 0 100-1.73.87.87 0 000 1.73zM2.6 24.27a.87.87 0 100-1.74.87.87 0 000 1.74z" fill="#00B2FF"/></symbol><symbol id="logo"><path d="M76.94 24.34c0-.73-.2-1.27-.57-1.64a6.22 6.22 0 00-2.01-1.16c-1.78-.67-3.06-1.46-3.85-2.37a4.8 4.8 0 01-1.17-3.22c0-1.5.53-2.7 1.59-3.6a6.02 6.02 0 014.05-1.37c1.1 0 2.07.23 2.92.7a4.7 4.7 0 011.97 1.94c.46.84.7 1.79.7 2.86h-3.59c0-.83-.17-1.47-.53-1.9-.35-.44-.86-.66-1.53-.66a1.9 1.9 0 00-1.46.57c-.35.36-.53.86-.53 1.49 0 .48.2.93.59 1.33.39.39 1.08.8 2.07 1.22 1.74.62 3 1.4 3.77 2.3a5.12 5.12 0 011.19 3.48c0 1.55-.5 2.76-1.48 3.63a5.85 5.85 0 01-4.01 1.3c-1.15 0-2.2-.23-3.14-.7a5.35 5.35 0 01-3.02-5.14h3.6c0 1.02.2 1.77.6 2.23.4.46 1.05.7 1.96.7 1.25 0 1.88-.67 1.88-2zM86 15.79l.1 1.22a3.72 3.72 0 013.06-1.46c1.32 0 2.25.6 2.8 1.78a3.62 3.62 0 013.23-1.78c2.3 0 3.5 1.6 3.55 4.8V29h-3.46v-8.44c0-.76-.1-1.3-.31-1.63-.21-.33-.57-.49-1.08-.49-.64 0-1.12.4-1.44 1.18l.03.42V29h-3.46v-8.41c0-.76-.1-1.3-.3-1.64-.2-.34-.57-.5-1.09-.5-.6 0-1.06.31-1.41.96V29h-3.46V15.8h3.24zM107.59 29c-.1-.2-.2-.55-.3-1.03a2.95 2.95 0 01-2.51 1.27c-1.1 0-2.03-.36-2.76-1.1a3.87 3.87 0 01-1.08-2.84 4 4 0 011.31-3.2c.89-.77 2.16-1.15 3.82-1.17h1.05v-1.06c0-.6-.1-1.01-.3-1.26-.2-.24-.5-.36-.9-.36-.86 0-1.29.5-1.29 1.5h-3.45c0-1.21.45-2.22 1.37-3 .92-.8 2.08-1.2 3.48-1.2 1.44 0 2.56.38 3.35 1.13.8.75 1.2 1.83 1.2 3.23v6.2a6.5 6.5 0 00.49 2.68V29h-3.48zm-2.04-2.47c.38 0 .7-.07.98-.23.26-.15.46-.34.6-.55v-2.74h-.84a1.8 1.8 0 00-1.39.56c-.33.37-.5.87-.5 1.5 0 .98.38 1.46 1.15 1.46zm14.05-7.4l-1.15-.1c-.94 0-1.58.41-1.92 1.24V29h-3.46V15.8h3.26l.1 1.42c.54-1.11 1.3-1.67 2.25-1.67.4 0 .71.05.96.16l-.04 3.41zm6.4-6.59v3.25h1.78v2.6H126v6.56c0 .52.07.88.2 1.07.15.2.43.3.84.3.33 0 .6-.03.81-.1l-.02 2.7c-.59.21-1.22.32-1.9.32-2.23 0-3.36-1.27-3.39-3.83V18.4h-1.52v-2.6h1.52v-3.25h3.46zM135.63 29V11.23h4.7c2.07 0 3.72.66 4.95 1.97 1.24 1.32 1.87 3.13 1.9 5.42v2.88c0 2.34-.63 4.18-1.86 5.51S142.38 29 140.2 29h-4.6zm3.58-14.78v11.8h1.08c1.2 0 2.04-.31 2.53-.94.48-.63.74-1.72.76-3.27v-3.09c0-1.66-.23-2.81-.7-3.47-.46-.65-1.25-1-2.36-1.03h-1.3zm15.71 15.02a5.41 5.41 0 01-4.15-1.58c-.99-1.06-1.49-2.57-1.49-4.54v-1.05c0-2.09.46-3.7 1.37-4.83a4.74 4.74 0 013.92-1.7c1.66 0 2.9.54 3.75 1.6.84 1.06 1.26 2.64 1.28 4.72v1.7h-6.87c.05.97.26 1.69.64 2.14.39.45.98.68 1.77.68 1.16 0 2.12-.4 2.9-1.19l1.35 2.09a4.5 4.5 0 01-1.84 1.43 6.4 6.4 0 01-2.63.53zm-2.17-8.1h3.46v-.32a3.69 3.69 0 00-.4-1.8c-.24-.4-.66-.6-1.26-.6s-1.05.21-1.32.64a4.53 4.53 0 00-.48 2.08zm12.97 2.98l1.67-8.33h3.6L167.35 29h-3.3l-3.63-13.2h3.61l1.68 8.32zM176.23 29h-3.47V15.8h3.47V29zm-3.63-16.63c0-.53.17-.97.52-1.31.34-.35.8-.52 1.36-.52.57 0 1.03.17 1.37.52.34.34.51.78.51 1.31s-.17.97-.51 1.32a1.8 1.8 0 01-1.37.53c-.58 0-1.04-.18-1.38-.53-.33-.35-.5-.79-.5-1.32zm11.07 14c1 0 1.51-.65 1.53-1.95h3.25a4.85 4.85 0 01-1.33 3.5c-.88.88-2 1.32-3.37 1.32-1.7 0-3-.52-3.9-1.58-.9-1.06-1.35-2.62-1.36-4.68v-1.05c0-2.07.44-3.66 1.31-4.75.9-1.09 2.2-1.63 3.92-1.63 1.46 0 2.6.45 3.44 1.35.84.9 1.27 2.17 1.29 3.82h-3.25c0-.74-.13-1.3-.37-1.7-.23-.4-.62-.6-1.17-.6-.6 0-1.03.21-1.3.64-.25.43-.4 1.25-.4 2.48v1.34c0 1.08.05 1.83.15 2.26.1.43.28.74.53.94.24.2.59.3 1.03.3zm12.06 2.87a5.41 5.41 0 01-4.15-1.58c-.99-1.06-1.49-2.57-1.49-4.54v-1.05c0-2.09.46-3.7 1.37-4.83a4.74 4.74 0 013.92-1.7c1.66 0 2.91.54 3.75 1.6.84 1.06 1.26 2.64 1.28 4.72v1.7h-6.87c.05.97.26 1.69.64 2.14.39.45.98.68 1.77.68 1.16 0 2.12-.4 2.9-1.19l1.35 2.09a4.5 4.5 0 01-1.84 1.43 6.4 6.4 0 01-2.63.53zm-2.17-8.1h3.46v-.32a3.68 3.68 0 00-.4-1.8c-.24-.4-.66-.6-1.26-.6s-1.05.21-1.32.64a4.5 4.5 0 00-.48 2.08z" fill="#fff"/><path d="M70.95 44.96l1.29-4.3h1.51l-2.52 7.3c-.38 1.07-1.04 1.6-1.96 1.6-.21 0-.44-.03-.69-.1v-1.1l.27.01c.36 0 .63-.07.8-.2.2-.13.34-.35.44-.65l.2-.55-2.22-6.31h1.54l1.34 4.3zm7.4.29l1.87-4.59H82V47h-1.43v-4.2L78.83 47h-.97l-1.75-4.22V47h-1.42v-6.34h1.79l1.86 4.59zM88.96 47h-1.42v-2.56h-2.47V47h-1.42v-6.34h1.42v2.64h2.47v-2.64h1.42V47zm3.05-4.32h1.4c.52 0 .97.09 1.36.27a1.97 1.97 0 011.18 1.88c0 .65-.23 1.18-.7 1.57-.45.4-1.06.6-1.83.6H90.6v-6.34h1.42v2.02zM98.44 47h-1.42v-6.34h1.42V47zm-6.42-3.18v2.04h1.4c.34 0 .61-.08.81-.25.2-.18.3-.43.3-.75s-.1-.57-.3-.75c-.19-.2-.45-.29-.79-.3h-1.42zm10.92 3.3c-.9 0-1.63-.29-2.2-.85a3.11 3.11 0 01-.84-2.28v-.17c0-.63.13-1.2.37-1.7s.59-.88 1.03-1.16c.44-.28.93-.42 1.48-.42.86 0 1.53.28 2 .83.47.55.7 1.33.7 2.34v.57h-4.14c.04.52.22.94.52 1.24.31.3.7.46 1.16.46.65 0 1.19-.26 1.6-.79l.76.73c-.25.38-.6.68-1.02.89-.42.2-.9.3-1.42.3zm-.17-5.43c-.4 0-.7.13-.95.4-.24.28-.39.66-.46 1.15h2.72v-.1a1.71 1.71 0 00-.39-1.09 1.18 1.18 0 00-.92-.36zm11.8.1h-2.06V47h-1.42v-5.2h-2.03v-1.14h5.51v1.13zm3.37 5.33c-.9 0-1.63-.29-2.2-.85a3.11 3.11 0 01-.84-2.28v-.17c0-.63.13-1.2.37-1.7s.59-.88 1.03-1.16c.44-.28.93-.42 1.48-.42.86 0 1.53.28 2 .83.47.55.7 1.33.7 2.34v.57h-4.14c.04.52.22.94.52 1.24.31.3.7.46 1.16.46.65 0 1.19-.26 1.6-.79l.76.73c-.25.38-.6.68-1.02.89-.42.2-.9.3-1.42.3zm-.17-5.43c-.4 0-.7.13-.95.4-.24.28-.39.66-.46 1.15h2.72v-.1a1.71 1.71 0 00-.39-1.09 1.18 1.18 0 00-.92-.36zm6.1 1.06l1.2-2.09h1.59l-1.94 3.12 2 3.22h-1.57l-1.26-2.17-1.26 2.17h-1.58l2-3.22-1.94-3.12h1.58l1.18 2.09zM133 47h-1.43v-2.56h-2.46V47h-1.43v-6.34h1.43v2.64h2.46v-2.64H133V47zm1.25-3.23c0-.62.13-1.18.37-1.67.25-.5.6-.89 1.04-1.15.44-.27.96-.4 1.53-.4.86 0 1.55.27 2.08.82.54.55.83 1.28.87 2.19v.33c0 .63-.11 1.19-.36 1.68-.24.5-.58.87-1.03 1.14-.44.27-.96.4-1.54.4-.9 0-1.62-.29-2.16-.88-.53-.6-.8-1.4-.8-2.39v-.07zm1.43.12c0 .66.13 1.17.4 1.54.27.37.64.55 1.13.55.48 0 .85-.19 1.11-.56.27-.38.4-.93.4-1.65a2.5 2.5 0 00-.4-1.52 1.31 1.31 0 00-1.13-.56c-.46 0-.83.18-1.1.55-.28.37-.41.92-.41 1.65zm10.97-3.23V47h-1.43v-5.2h-1.8l-.1 2.22a4.57 4.57 0 01-.63 2.29c-.33.46-.84.69-1.52.69h-.44v-1.18l.28-.03c.32-.05.54-.24.68-.57.15-.34.24-.96.28-1.85l.12-2.71h4.56zm1.24 3.11c0-.62.13-1.18.37-1.67.25-.5.6-.89 1.04-1.15.44-.27.96-.4 1.53-.4.86 0 1.55.27 2.08.82.54.55.83 1.28.87 2.19v.33c0 .63-.11 1.19-.36 1.68-.23.5-.58.87-1.03 1.14-.44.27-.96.4-1.54.4-.9 0-1.62-.29-2.16-.88-.53-.6-.8-1.4-.8-2.39v-.07zm1.43.12c0 .66.13 1.17.4 1.54.27.37.65.55 1.13.55.48 0 .85-.19 1.12-.56.26-.38.4-.93.4-1.65 0-.64-.14-1.15-.42-1.52a1.31 1.31 0 00-1.12-.56c-.46 0-.83.18-1.1.55-.28.37-.41.92-.41 1.65zm9.9-2.08h-2.76V47h-1.42v-6.34h4.17v1.15zm4.76-1.15h1.42V47h-1.42v-4.23L161.49 47h-1.42v-6.34h1.42v4.23l2.49-4.23zm6.89 0h1.41V47h-1.41v-4.23L168.38 47h-1.41v-6.34h1.41v4.23l2.49-4.23z" fill="#788891"/><path d="M32.07 13.87a2.6 2.6 0 012.44 1.73h8.98a2.6 2.6 0 110 1.73h-8.98a2.6 2.6 0 11-2.44-3.46zm13.86 3.46a.87.87 0 100-1.73.87.87 0 000 1.73zm-13.86 0a.87.87 0 100-1.73.87.87 0 000 1.73z" fill="#00B2FF"/><path d="M25.13 19.23v-5.36c0-.23.1-.45.26-.62l3.46-3.46a.86.86 0 01.62-.26h2.76a2.6 2.6 0 110 1.74h-2.4l-2.96 2.96v5a2.6 2.6 0 11-1.74 0zm9.54-7.96a.87.87 0 100-1.74.87.87 0 000 1.74zM26 22.53a.87.87 0 100-1.73.87.87 0 000 1.73zM9.53 22.53c.4 0 .78.1 1.12.26l1.48-1.48V13c0-.23.1-.45.26-.61l8.67-8.68A2.6 2.6 0 1123.4 5.2c-.4 0-.77-.1-1.11-.26l-8.42 8.42v8.3c0 .24-.1.46-.26.62l-1.74 1.74a2.6 2.6 0 11-2.34-1.49zM23.4 3.47a.87.87 0 100-1.74.87.87 0 000 1.74zM9.53 26a.87.87 0 100-1.74.87.87 0 000 1.74zM1.73 12.3V8.66c0-.23.1-.45.26-.62L8.05 2a.86.86 0 01.62-.26h4.49a2.6 2.6 0 110 1.74H9.03L3.47 9.03v3.26a2.6 2.6 0 11-1.74 0zM15.6 3.46a.87.87 0 100-1.74.87.87 0 000 1.74zM2.6 15.6a.87.87 0 100-1.74.87.87 0 000 1.74zM13.87 46.96V34.51a2.6 2.6 0 113.3-3.31h8.99a2.6 2.6 0 012.44-1.73 2.6 2.6 0 012.44 1.73h5l3.22-3.22a2.6 2.6 0 112.34 1.49c-.4 0-.77-.1-1.11-.26L37 32.68a.86.86 0 01-.61.25h-5.36a2.6 2.6 0 01-2.44 1.74 2.6 2.6 0 01-2.44-1.74h-8.99a2.6 2.6 0 01-1.57 1.58v12.45a2.6 2.6 0 11-1.73 0zM41.6 27.73a.87.87 0 100-1.73.87.87 0 000 1.73zm-13 5.2a.87.87 0 100-1.73.87.87 0 000 1.73zM14.73 50.27a.87.87 0 100-1.74.87.87 0 000 1.74zm0-17.34a.87.87 0 100-1.73.87.87 0 000 1.73z" fill="#00B2FF"/><path d="M18.2 17.5v-2.77c0-.23.1-.45.25-.61l10.41-10.4A2.6 2.6 0 0131.2 0a2.6 2.6 0 012.44 1.72h3.63c.48 0 .86.4.86.87v2.24l3.22 3.22a2.6 2.6 0 11-1.49 2.34c0-.4.1-.77.27-1.11L36.65 5.8a.86.86 0 01-.25-.61V3.47h-2.76a2.6 2.6 0 01-3.55 1.47L19.93 15.09v2.4a2.6 2.6 0 11-1.73 0zm24.27-6.23a.87.87 0 100-1.74.87.87 0 000 1.74zM31.2 3.47a.87.87 0 100-1.74.87.87 0 000 1.74zM19.07 20.8a.87.87 0 100-1.74.87.87 0 000 1.74z" fill="#00B2FF"/><path d="M20.8 24.27A2.6 2.6 0 0123.24 26h10.2l4.95-4.95a.86.86 0 01.61-.25h9.17l2.1-2.1v-7.07l-6.69-6.7c-.34.17-.71.27-1.11.27a2.6 2.6 0 112.6-2.6c0 .4-.1.77-.26 1.11l6.94 6.94c.16.17.25.39.25.62v7.8c0 .23-.1.45-.25.6l-2.6 2.6a.86.86 0 01-.62.26h-9.17l-4.95 4.95a.86.86 0 01-.61.25H23.24a2.6 2.6 0 11-2.44-3.46zM42.47 1.73a.87.87 0 100 1.74.87.87 0 000-1.74zm-21.67 26a.87.87 0 100-1.73.87.87 0 000 1.73zM2.6 20.8c.4 0 .77.1 1.11.26l3.22-3.22v-5a2.6 2.6 0 111.74 0v5.36c0 .23-.1.45-.26.61L4.94 22.3a2.56 2.56 0 01-1.47 3.55v.67l6.68 6.68c.16.16.25.38.25.61v1.03a2.6 2.6 0 011.73 2.44 2.6 2.6 0 01-1.73 2.44v2.05a2.6 2.6 0 11-1.73 0v-2.05a2.6 2.6 0 01-1.74-2.44 2.6 2.6 0 011.74-2.44v-.67l-6.68-6.68a.86.86 0 01-.26-.61v-1.03a2.6 2.6 0 01.87-5.04zm5.2-9.53a.87.87 0 100-1.74.87.87 0 000 1.74zm1.73 33.8a.87.87 0 100-1.74.87.87 0 000 1.74zm0-6.94a.87.87 0 100-1.73.87.87 0 000 1.73zM2.6 24.27a.87.87 0 100-1.74.87.87 0 000 1.74z" fill="#00B2FF"/></symbol><symbol id="minus"><path d="M0 .5h16v1H0v-1z" fill="#C4C4C4"/></symbol><symbol id="mobile-group"><path opacity=".2" d="M472.852 74.235L266.129 432.29 59.406 74.235h413.446z" stroke="#fff"/><path opacity=".2" d="M262.133 223.531l-120.816 209.26-120.816-209.26h241.632z" stroke="#fff"/><circle cx="58.821" cy="73.672" r="3.767" fill="#fff"/><circle cx="20.399" cy="223.596" r="3.767" fill="#fff"/><circle cx="141.694" cy="433.038" r="3.767" fill="#fff"/></symbol><symbol id="mobile">
  <path opacity=".2" d="M472.852 121.235L266.129 479.29 59.406 121.235h413.446z" stroke="#fff"/>
  <!-- <circle cx="150.821" cy="279.672" r="3.767" fill="#fff"/> -->
  <path opacity=".2" d="M262.133 270.531l-120.816 209.26-120.816-209.26h241.632z" stroke="#fff"/>
  <circle cx="58.821" cy="120.672" r="3.767" fill="#fff"/>
  <circle cx="20.399" cy="270.596" r="3.767" fill="#fff"/>
  <circle cx="141.694" cy="480.038" r="3.767" fill="#fff"/>
  <circle cx="266.003" cy="479.285" r="3.767" fill="#fff"/>
  <circle cx="473.184" cy="120.672" r="3.767" fill="#fff"/>
</symbol><symbol id="ok"><path d="M13.85 10.96c1.02 0 1.8-.84 1.79-1.75a1.77 1.77 0 00-1.77-1.76c-.98 0-1.79.78-1.79 1.74 0 .97.8 1.77 1.77 1.77z" fill="currentColor"/><path d="M13.7 0A13.1 13.1 0 00.54 13c0 7.19 5.9 13 13.16 13 7.28 0 13.17-5.83 13.17-13 .02-7.17-5.89-13-13.17-13zm.19 4.92a4.3 4.3 0 014.3 4.3 4.29 4.29 0 01-4.38 4.24A4.31 4.31 0 019.54 9.2a4.3 4.3 0 014.35-4.27zm4.83 10.03l-.02.1c-.05.36-.24.66-.56.87a7.52 7.52 0 01-2.45 1.02c-.07.02-.07.02-.01.07l1.03 1.02 1.32 1.3c.62.62.45 1.64-.34 2-.13.08-.28.1-.43.14H17c-.02 0-.04 0-.04-.02a1.4 1.4 0 01-.77-.39l-2.27-2.25c-.06-.05-.06-.05-.12 0l-2.3 2.27c-.12.13-.25.22-.42.3-.12.05-.25.07-.36.09h-.25l-.09-.02c-.5-.1-.85-.37-1-.85-.15-.49-.03-.91.32-1.27l.94-.93 1.4-1.37c.05-.06.05-.06-.02-.07l-.08-.02a8.18 8.18 0 01-2.35-.99 1.19 1.19 0 01-.58-1.19c.1-.92 1.15-1.43 1.94-.92l.45.24a5.41 5.41 0 004.15.3 7.7 7.7 0 001.26-.58 1.27 1.27 0 011.9.96v.19z" fill="currentColor"/></symbol><symbol id="phone-call"><path d="M14.23 11.15a1.77 1.77 0 00-1.28-.59c-.47 0-.92.2-1.3.59l-1.2 1.2-.3-.16a4.83 4.83 0 01-.38-.2 13.06 13.06 0 01-3.13-2.85 7.7 7.7 0 01-1.02-1.62l.88-.86.32-.33c.8-.8.8-1.83 0-2.63L5.78 2.67l-.35-.36c-.23-.24-.47-.48-.72-.71a1.8 1.8 0 00-1.27-.56c-.47 0-.92.2-1.3.56L.83 2.92a2.78 2.78 0 00-.82 1.77c-.1 1.1.23 2.14.48 2.82.62 1.66 1.54 3.2 2.91 4.84A17.9 17.9 0 009.37 17a9.3 9.3 0 003.6 1c.87 0 1.6-.32 2.19-.94l.01-.02c.2-.24.43-.46.67-.69l.5-.49c.37-.39.57-.85.57-1.31 0-.47-.2-.93-.59-1.3l-2.09-2.1zm1.37 4l-.47.46c-.25.24-.5.49-.73.76-.39.41-.84.6-1.43.6h-.18a8.26 8.26 0 01-2.97-.88 16.9 16.9 0 01-5.61-4.4c-1.3-1.56-2.17-3-2.74-4.55a5.42 5.42 0 01-.43-2.38c.04-.44.21-.81.53-1.13l1.3-1.3a.87.87 0 01.57-.26c.24 0 .44.14.56.26l.01.01.69.68c.11.13.23.25.36.37L6.1 4.43c.4.4.4.77 0 1.18l-.33.32c-.32.33-.63.63-.96.93l-.02.02c-.32.33-.26.65-.2.86l.02.04c.27.65.65 1.27 1.23 2 1.05 1.3 2.16 2.3 3.38 3.07.15.1.31.18.47.26l.37.2.05.02c.13.07.25.1.38.1.31 0 .5-.2.57-.26l1.3-1.3c.13-.13.34-.29.58-.29.24 0 .43.15.55.28l2.1 2.1c.4.39.4.79 0 1.2zM9.73 4.28a4.84 4.84 0 013.99 3.98c.04.25.25.43.5.43h.09a.51.51 0 00.42-.6 5.86 5.86 0 00-4.82-4.82.52.52 0 00-.6.42.5.5 0 00.42.6z" fill="#00B2FF"/><path d="M18 7.94a9.64 9.64 0 00-2.72-5.22A9.66 9.66 0 0010.05 0a.51.51 0 10-.17 1 8.65 8.65 0 017.1 7.1c.04.25.26.42.5.42h.1a.5.5 0 00.41-.59z" fill="#00B2FF"/></symbol><symbol id="plus"><path fill-rule="evenodd" clip-rule="evenodd" d="M8.5 7.5V0h-1v7.5H0v1h7.5V16h1V8.5H16v-1H8.5z" fill="#C4C4C4"/></symbol><symbol id="right"><path d="M1 8.5l4-4-4-4" stroke="#fff" stroke-linejoin="round"/></symbol><symbol id="service-device"><path d="M76.94 24.34c0-.73-.2-1.27-.57-1.64a6.22 6.22 0 00-2.01-1.16c-1.78-.67-3.06-1.46-3.85-2.37a4.8 4.8 0 01-1.17-3.22c0-1.5.53-2.7 1.59-3.6a6.02 6.02 0 014.05-1.37c1.1 0 2.07.23 2.92.7a4.7 4.7 0 011.97 1.94c.46.84.7 1.79.7 2.86h-3.59c0-.83-.17-1.47-.53-1.9-.35-.44-.86-.66-1.53-.66a1.9 1.9 0 00-1.46.57c-.35.36-.53.86-.53 1.49 0 .48.2.93.59 1.33.39.39 1.08.8 2.07 1.22 1.74.62 3 1.4 3.77 2.3a5.12 5.12 0 011.19 3.48c0 1.55-.5 2.76-1.48 3.63a5.85 5.85 0 01-4.01 1.3c-1.15 0-2.2-.23-3.14-.7a5.35 5.35 0 01-3.02-5.14h3.6c0 1.02.2 1.77.6 2.23.4.46 1.05.7 1.96.7 1.25 0 1.88-.67 1.88-2zm11.15 4.9a5.41 5.41 0 01-4.15-1.58c-.99-1.06-1.49-2.57-1.49-4.54v-1.05c0-2.09.46-3.7 1.37-4.83a4.74 4.74 0 013.92-1.7c1.66 0 2.9.54 3.75 1.6.83 1.06 1.26 2.64 1.28 4.72v1.7H85.9c.04.97.26 1.69.64 2.14.38.45.97.68 1.77.68 1.16 0 2.12-.4 2.9-1.19l1.35 2.09a4.5 4.5 0 01-1.84 1.43c-.8.36-1.68.53-2.63.53zm-2.17-8.1h3.45v-.32a3.7 3.7 0 00-.39-1.8c-.24-.4-.66-.6-1.27-.6-.6 0-1.04.21-1.31.64a4.52 4.52 0 00-.48 2.08zm15.32-2.02l-1.15-.1c-.94 0-1.58.42-1.91 1.25V29H94.7V15.8h3.26l.1 1.42c.54-1.11 1.3-1.67 2.25-1.67.4 0 .71.05.96.16l-.04 3.41zm6.34 5l1.67-8.33h3.6L109.22 29h-3.3l-3.63-13.2h3.61l1.67 8.32zM118.1 29h-3.47V15.8h3.47V29zm-3.63-16.63c0-.53.17-.97.52-1.31.34-.35.8-.52 1.36-.52.57 0 1.03.17 1.37.52.34.34.51.78.51 1.31s-.17.97-.51 1.32a1.8 1.8 0 01-1.37.53c-.58 0-1.04-.18-1.38-.53-.33-.35-.5-.79-.5-1.32zm11.07 14c1 0 1.51-.65 1.53-1.95h3.25a4.85 4.85 0 01-1.33 3.5c-.87.88-2 1.32-3.37 1.32-1.7 0-3-.52-3.9-1.58-.9-1.06-1.35-2.62-1.36-4.68v-1.05c0-2.07.44-3.66 1.31-4.75.9-1.09 2.2-1.63 3.92-1.63 1.46 0 2.6.45 3.44 1.35.84.9 1.27 2.17 1.29 3.82h-3.25c0-.74-.13-1.3-.37-1.7-.23-.4-.62-.6-1.17-.6-.6 0-1.03.21-1.3.64-.25.43-.4 1.25-.4 2.48v1.34c0 1.08.05 1.83.15 2.26.1.43.28.74.53.94.24.2.59.3 1.03.3zm12.06 2.87a5.41 5.41 0 01-4.15-1.58c-.99-1.06-1.48-2.57-1.48-4.54v-1.05c0-2.09.45-3.7 1.36-4.83a4.74 4.74 0 013.92-1.7c1.66 0 2.91.54 3.75 1.6.84 1.06 1.26 2.64 1.28 4.72v1.7h-6.87c.05.97.26 1.69.64 2.14.39.45.98.68 1.77.68 1.16 0 2.12-.4 2.9-1.19l1.35 2.09a4.5 4.5 0 01-1.84 1.43c-.8.36-1.68.53-2.63.53zm-2.17-8.1h3.46v-.32a3.7 3.7 0 00-.4-1.8c-.24-.4-.66-.6-1.26-.6s-1.05.21-1.32.64a4.5 4.5 0 00-.48 2.08zM150.17 29V11.23h4.7c2.07 0 3.72.66 4.95 1.97 1.24 1.32 1.87 3.13 1.9 5.42v2.88c0 2.34-.63 4.18-1.86 5.51s-2.93 1.99-5.1 1.99h-4.6zm3.58-14.78v11.8h1.08c1.2 0 2.04-.31 2.52-.94.5-.63.75-1.72.78-3.27v-3.09c0-1.66-.24-2.81-.7-3.47-.47-.65-1.25-1-2.37-1.03h-1.3zm15.72 15.02a5.42 5.42 0 01-4.16-1.58c-.99-1.06-1.49-2.57-1.49-4.54v-1.05c0-2.09.46-3.7 1.37-4.83a4.74 4.74 0 013.92-1.7c1.66 0 2.91.54 3.75 1.6.84 1.06 1.26 2.64 1.28 4.72v1.7h-6.87c.05.97.26 1.69.64 2.14.39.45.98.68 1.78.68 1.15 0 2.12-.4 2.89-1.19l1.35 2.09a4.51 4.51 0 01-1.84 1.43c-.8.36-1.68.53-2.63.53zm-2.18-8.1h3.46v-.32a3.7 3.7 0 00-.4-1.8c-.24-.4-.66-.6-1.26-.6s-1.05.21-1.32.64a4.53 4.53 0 00-.48 2.08zm12.97 2.98l1.67-8.33h3.6L181.9 29h-3.3l-3.63-13.2h3.61l1.68 8.32zM190.78 29h-3.47V15.8h3.47V29zm-3.63-16.63c0-.53.17-.97.52-1.31.34-.35.8-.52 1.36-.52.57 0 1.03.17 1.37.52.34.34.51.78.51 1.31s-.17.97-.51 1.32a1.8 1.8 0 01-1.37.53c-.57 0-1.03-.18-1.38-.53-.33-.35-.5-.79-.5-1.32zm11.07 14c1 0 1.51-.65 1.53-1.95H203a4.86 4.86 0 01-1.33 3.5c-.87.88-2 1.32-3.37 1.32-1.7 0-3-.52-3.9-1.58-.9-1.06-1.35-2.62-1.36-4.68v-1.05c0-2.07.44-3.66 1.31-4.75.9-1.09 2.2-1.63 3.92-1.63 1.46 0 2.6.45 3.45 1.35.83.9 1.26 2.17 1.28 3.82h-3.25c0-.74-.13-1.3-.37-1.7-.23-.4-.62-.6-1.17-.6-.6 0-1.03.21-1.3.64-.25.43-.39 1.25-.4 2.48v1.34c0 1.08.05 1.83.15 2.26.1.43.28.74.53.94.24.2.59.3 1.03.3zm12.06 2.87a5.41 5.41 0 01-4.15-1.58c-.99-1.06-1.48-2.57-1.48-4.54v-1.05c0-2.09.45-3.7 1.36-4.83a4.74 4.74 0 013.92-1.7c1.66 0 2.91.54 3.75 1.6.84 1.06 1.26 2.64 1.28 4.72v1.7h-6.87c.05.97.26 1.69.65 2.14.38.45.97.68 1.76.68 1.16 0 2.13-.4 2.9-1.19l1.35 2.09a4.5 4.5 0 01-1.84 1.43 6.4 6.4 0 01-2.63.53zm-2.17-8.1h3.46v-.32a3.69 3.69 0 00-.4-1.8c-.24-.4-.66-.6-1.26-.6s-1.04.21-1.32.64a4.53 4.53 0 00-.48 2.08z" fill="#203C42"/><path d="M70.95 44.96l1.29-4.3h1.51l-2.52 7.3c-.38 1.07-1.04 1.6-1.96 1.6-.21 0-.44-.03-.69-.1v-1.1l.27.01c.36 0 .63-.07.8-.2.2-.13.34-.35.44-.65l.2-.55-2.22-6.31h1.54l1.34 4.3zm7.4.29l1.87-4.59H82V47h-1.43v-4.2L78.83 47h-.97l-1.75-4.22V47h-1.42v-6.34h1.79l1.86 4.59zM88.96 47h-1.42v-2.56h-2.47V47h-1.42v-6.34h1.42v2.64h2.47v-2.64h1.42V47zm3.05-4.32h1.4c.52 0 .97.09 1.36.27a1.97 1.97 0 011.18 1.88c0 .65-.23 1.18-.7 1.57-.45.4-1.06.6-1.83.6H90.6v-6.34h1.42v2.02zM98.44 47h-1.42v-6.34h1.42V47zm-6.42-3.18v2.04h1.4c.34 0 .61-.08.81-.25.2-.18.3-.43.3-.75s-.1-.57-.3-.75c-.19-.2-.45-.29-.79-.3h-1.42zm10.92 3.3c-.9 0-1.63-.29-2.2-.85a3.11 3.11 0 01-.84-2.28v-.17c0-.63.13-1.2.37-1.7s.59-.88 1.03-1.16c.44-.28.93-.42 1.48-.42.86 0 1.53.28 2 .83.47.55.7 1.33.7 2.34v.57h-4.14c.04.52.22.94.52 1.24.31.3.7.46 1.16.46.65 0 1.19-.26 1.6-.79l.76.73c-.25.38-.6.68-1.02.89-.42.2-.9.3-1.42.3zm-.17-5.43c-.4 0-.7.13-.95.4-.24.28-.39.66-.46 1.15h2.72v-.1a1.71 1.71 0 00-.39-1.09 1.18 1.18 0 00-.92-.36zm11.8.1h-2.06V47h-1.42v-5.2h-2.03v-1.14h5.51v1.13zm3.37 5.33c-.9 0-1.63-.29-2.2-.85a3.11 3.11 0 01-.84-2.28v-.17c0-.63.13-1.2.37-1.7s.59-.88 1.03-1.16c.44-.28.93-.42 1.48-.42.86 0 1.53.28 2 .83.47.55.7 1.33.7 2.34v.57h-4.14c.04.52.22.94.52 1.24.31.3.7.46 1.16.46.65 0 1.19-.26 1.6-.79l.76.73c-.25.38-.6.68-1.02.89-.42.2-.9.3-1.42.3zm-.17-5.43c-.4 0-.7.13-.95.4-.24.28-.39.66-.46 1.15h2.72v-.1a1.71 1.71 0 00-.39-1.09 1.18 1.18 0 00-.92-.36zm6.1 1.06l1.2-2.09h1.59l-1.94 3.12 2 3.22h-1.57l-1.26-2.17-1.26 2.17h-1.58l2-3.22-1.94-3.12h1.58l1.18 2.09zM133 47h-1.43v-2.56h-2.46V47h-1.43v-6.34h1.43v2.64h2.46v-2.64H133V47zm1.25-3.23c0-.62.13-1.18.37-1.67.25-.5.6-.89 1.04-1.15.44-.27.96-.4 1.53-.4.86 0 1.55.27 2.08.82.54.55.83 1.28.87 2.19v.33c0 .63-.11 1.19-.36 1.68-.24.5-.58.87-1.03 1.14-.44.27-.96.4-1.54.4-.9 0-1.62-.29-2.16-.88-.53-.6-.8-1.4-.8-2.39v-.07zm1.43.12c0 .66.13 1.17.4 1.54.27.37.64.55 1.13.55.48 0 .85-.19 1.11-.56.27-.38.4-.93.4-1.65a2.5 2.5 0 00-.4-1.52 1.31 1.31 0 00-1.13-.56c-.46 0-.83.18-1.1.55-.28.37-.41.92-.41 1.65zm10.97-3.23V47h-1.43v-5.2h-1.8l-.1 2.22a4.57 4.57 0 01-.63 2.29c-.33.46-.84.69-1.52.69h-.44v-1.18l.28-.03c.32-.05.54-.24.68-.57.15-.34.24-.96.28-1.85l.12-2.71h4.56zm1.24 3.11c0-.62.13-1.18.37-1.67.25-.5.6-.89 1.04-1.15.44-.27.96-.4 1.53-.4.86 0 1.55.27 2.08.82.54.55.83 1.28.87 2.19v.33c0 .63-.11 1.19-.36 1.68-.23.5-.58.87-1.03 1.14-.44.27-.96.4-1.54.4-.9 0-1.62-.29-2.16-.88-.53-.6-.8-1.4-.8-2.39v-.07zm1.43.12c0 .66.13 1.17.4 1.54.27.37.65.55 1.13.55.48 0 .85-.19 1.12-.56.26-.38.4-.93.4-1.65 0-.64-.14-1.15-.42-1.52a1.31 1.31 0 00-1.12-.56c-.46 0-.83.18-1.1.55-.28.37-.41.92-.41 1.65zm9.9-2.08h-2.76V47h-1.42v-6.34h4.17v1.15zm4.76-1.15h1.42V47h-1.42v-4.23L161.49 47h-1.42v-6.34h1.42v4.23l2.49-4.23zm6.89 0h1.41V47h-1.41v-4.23L168.38 47h-1.41v-6.34h1.41v4.23l2.49-4.23z" fill="#788891"/><path d="M32.07 13.87a2.6 2.6 0 012.44 1.73h8.98a2.6 2.6 0 110 1.73h-8.98a2.6 2.6 0 11-2.44-3.46zm13.86 3.46a.87.87 0 100-1.73.87.87 0 000 1.73zm-13.86 0a.87.87 0 100-1.73.87.87 0 000 1.73z" fill="#00B2FF"/><path d="M25.13 19.23v-5.36c0-.23.1-.45.26-.62l3.46-3.46a.86.86 0 01.62-.26h2.76a2.6 2.6 0 110 1.74h-2.4l-2.96 2.96v5a2.6 2.6 0 11-1.74 0zm9.54-7.96a.87.87 0 100-1.74.87.87 0 000 1.74zM26 22.53a.87.87 0 100-1.73.87.87 0 000 1.73zM9.53 22.53c.4 0 .78.1 1.12.26l1.48-1.48V13c0-.23.1-.45.26-.61l8.67-8.68A2.6 2.6 0 1123.4 5.2c-.4 0-.77-.1-1.11-.26l-8.42 8.42v8.3c0 .24-.1.46-.26.62l-1.74 1.74a2.6 2.6 0 11-2.34-1.49zM23.4 3.47a.87.87 0 100-1.74.87.87 0 000 1.74zM9.53 26a.87.87 0 100-1.74.87.87 0 000 1.74zM1.73 12.3V8.66c0-.23.1-.45.26-.62L8.05 2a.86.86 0 01.62-.26h4.49a2.6 2.6 0 110 1.74H9.03L3.47 9.03v3.26a2.6 2.6 0 11-1.74 0zM15.6 3.46a.87.87 0 100-1.74.87.87 0 000 1.74zM2.6 15.6a.87.87 0 100-1.74.87.87 0 000 1.74zM13.87 46.96V34.51a2.6 2.6 0 113.3-3.31h8.99a2.6 2.6 0 012.44-1.73 2.6 2.6 0 012.44 1.73h5l3.22-3.22a2.6 2.6 0 112.34 1.49c-.4 0-.77-.1-1.11-.26L37 32.68a.86.86 0 01-.61.25h-5.36a2.6 2.6 0 01-2.44 1.74 2.6 2.6 0 01-2.44-1.74h-8.99a2.6 2.6 0 01-1.57 1.58v12.45a2.6 2.6 0 11-1.73 0zM41.6 27.73a.87.87 0 100-1.73.87.87 0 000 1.73zm-13 5.2a.87.87 0 100-1.73.87.87 0 000 1.73zM14.73 50.27a.87.87 0 100-1.74.87.87 0 000 1.74zm0-17.34a.87.87 0 100-1.73.87.87 0 000 1.73z" fill="#00B2FF"/><path d="M18.2 17.5v-2.77c0-.23.1-.45.25-.61l10.41-10.4A2.6 2.6 0 0131.2 0a2.6 2.6 0 012.44 1.72h3.63c.48 0 .86.4.86.87v2.24l3.22 3.22a2.6 2.6 0 11-1.49 2.34c0-.4.1-.77.27-1.11L36.65 5.8a.86.86 0 01-.25-.61V3.47h-2.76a2.6 2.6 0 01-3.55 1.47L19.93 15.09v2.4a2.6 2.6 0 11-1.73 0zm24.27-6.23a.87.87 0 100-1.74.87.87 0 000 1.74zM31.2 3.47a.87.87 0 100-1.74.87.87 0 000 1.74zM19.07 20.8a.87.87 0 100-1.74.87.87 0 000 1.74z" fill="#00B2FF"/><path d="M20.8 24.27A2.6 2.6 0 0123.24 26h10.2l4.95-4.95a.86.86 0 01.61-.25h9.17l2.1-2.1v-7.07l-6.69-6.7c-.34.17-.71.27-1.11.27a2.6 2.6 0 112.6-2.6c0 .4-.1.77-.26 1.11l6.94 6.94c.16.17.25.39.25.62v7.8c0 .23-.1.45-.25.6l-2.6 2.6a.86.86 0 01-.62.26h-9.17l-4.95 4.95a.86.86 0 01-.61.25H23.24a2.6 2.6 0 11-2.44-3.46zM42.47 1.73a.87.87 0 100 1.74.87.87 0 000-1.74zm-21.67 26a.87.87 0 100-1.73.87.87 0 000 1.73zM2.6 20.8c.4 0 .77.1 1.11.26l3.22-3.22v-5a2.6 2.6 0 111.74 0v5.36c0 .23-.1.45-.26.61L4.94 22.3a2.56 2.56 0 01-1.47 3.55v.67l6.68 6.68c.16.16.25.38.25.61v1.03a2.6 2.6 0 011.73 2.44 2.6 2.6 0 01-1.73 2.44v2.05a2.6 2.6 0 11-1.73 0v-2.05a2.6 2.6 0 01-1.74-2.44 2.6 2.6 0 011.74-2.44v-.67l-6.68-6.68a.86.86 0 01-.26-.61v-1.03a2.6 2.6 0 01.87-5.04zm5.2-9.53a.87.87 0 100-1.74.87.87 0 000 1.74zm1.73 33.8a.87.87 0 100-1.74.87.87 0 000 1.74zm0-6.94a.87.87 0 100-1.73.87.87 0 000 1.73zM2.6 24.27a.87.87 0 100-1.74.87.87 0 000 1.74z" fill="#00B2FF"/></symbol><symbol id="square"><path stroke="#fff" d="M.5.5h15v15H.5z"/></symbol><symbol id="stopwatch"><path d="M3.85 12l-1.51-1.52a2.12 2.12 0 010-2.98 2.1 2.1 0 012.97 0l1.6 1.62a14.65 14.65 0 015.6-2.38v-2.1h-1.4a.7.7 0 01-.7-.7V2.1A2.1 2.1 0 0112.51 0h5.6c1.15 0 2.1.95 2.1 2.11v1.83a.7.7 0 01-.7.7h-1.4v2.1c2 .39 3.91 1.2 5.59 2.38l1.6-1.62a2.1 2.1 0 012.98 0c.81.82.81 2.16 0 2.98L26.77 12A14.8 14.8 0 0115.3 36 14.8 14.8 0 013.85 12zm.47-3.5a.7.7 0 00-1 0 .7.7 0 000 .99l1.46 1.45c.32-.33.66-.65 1.02-.96L4.32 8.5zM18.8 2.1a.7.7 0 00-.7-.7h-5.6a.7.7 0 00-.7.7v1.13h7V2.1zm-4.9 2.53v1.9c.93-.09 1.87-.09 2.8 0v-1.9h-2.8zM27.29 8.5a.7.7 0 00-1 0l-1.47 1.48c.35.3.7.63 1.02.96l1.45-1.45a.7.7 0 000-1zM15.3 34.6a13.39 13.39 0 002-26.58 13.44 13.44 0 00-4 0 13.25 13.25 0 00-7.99 4.4 13.39 13.39 0 009.99 22.18z" fill="#00B2FF"/><path d="M15.3 23.35a2.1 2.1 0 01-.7-4.1v-5.04a.7.7 0 111.4 0v5.04a2.11 2.11 0 01-.7 4.1zm0-2.81a.7.7 0 000 1.4.7.7 0 000-1.4z" fill="#00B2FF"/><path d="M7.85 13.82l.04-.04a10.52 10.52 0 014.45-2.66.7.7 0 01.4 1.35 9.1 9.1 0 00-3.35 1.83l.48.48a.7.7 0 01-.5 1.2.7.7 0 01-.5-.21l-.47-.48a9.08 9.08 0 00-2.16 5.25h.67a.7.7 0 010 1.4h-.67c.15 1.95.9 3.77 2.16 5.25l.48-.48a.7.7 0 01.99 0 .7.7 0 010 1l-.48.47a8.99 8.99 0 005.22 2.18v-.68a.7.7 0 111.4 0v.68a8.99 8.99 0 005.21-2.18l-.47-.47a.7.7 0 010-1 .7.7 0 01.99 0l.47.48a9.08 9.08 0 002.17-5.25h-.68a.7.7 0 01-.7-.7c0-.39.32-.7.7-.7h.68a9.08 9.08 0 00-2.17-5.25l-.47.48a.7.7 0 01-1 0 .7.7 0 010-1l.48-.47a9.1 9.1 0 00-3.34-1.83.7.7 0 01.4-1.35 10.52 10.52 0 014.45 2.66l.03.04a10.5 10.5 0 013.04 7.42c0 2.8-1.08 5.43-3.04 7.42l-.03.04-.04.03a10.4 10.4 0 01-7.38 3.06 10.4 10.4 0 01-7.38-3.06c-.02 0-.03-.02-.04-.03l-.03-.04a10.5 10.5 0 01-3.05-7.42c0-2.8 1.08-5.43 3.04-7.42z" fill="#00B2FF"/><path d="M15.3 12.1a.7.7 0 010-1.4c.4 0 .7.3.7.7a.7.7 0 01-.7.7z" fill="#00B2FF"/></symbol><symbol id="tablet-group">
  <path opacity=".2" d="M494.359 126.428L277.928 501.296 61.498 126.428h432.861z" stroke="#fff"/>
  <path opacity=".2" d="M273.787 282.705L147.28 501.821 20.774 282.705h253.013z" stroke="#fff"/>
  <circle cx="60.927" cy="125.862" r="3.943" fill="#fff"/>
  <circle cx="20.707" cy="282.797" r="3.943" fill="#fff"/>
  <circle cx="147.675" cy="502.032" r="3.943" fill="#fff"/>
  <circle cx="277.797" cy="501.244" r="3.943" fill="#fff"/>
  <circle cx="494.667" cy="125.862" r="3.943" fill="#fff"/>
</symbol><symbol id="tag"><path d="M11.07 8.58a.69.69 0 00-.97 0 .69.69 0 000 .97.69.69 0 00.97 0 .69.69 0 000-.97z" fill="#00B2FF"/><path d="M34.8 2.86L33.95 2l.85-.84a.68.68 0 00-.97-.97l-.84.84-.83-.83a.68.68 0 00-.49-.2H20.1a3.4 3.4 0 00-2.42 1l-5.77 5.77a.68.68 0 00.96.97l5.78-5.78c.39-.39.9-.6 1.45-.6H31.4l.63.64-2.53 2.54a2.8 2.8 0 10.96.97L33 2.98l.64.64V14.9c0 .55-.22 1.06-.6 1.45L16.33 33.03a2.04 2.04 0 01-2.9 0L1.97 21.56a2.04 2.04 0 010-2.9l7.37-7.37a.68.68 0 00-.97-.97L1 17.69a3.4 3.4 0 000 4.84L12.47 34a3.41 3.41 0 004.84 0L34 17.32c.65-.65 1-1.5 1-2.42L35 3.34a.68.68 0 00-.2-.48zm-5.74 5.1a1.42 1.42 0 01-2.03 0 1.43 1.43 0 011.43-2.38l-.8.79a.68.68 0 00.97.96l.8-.78c.13.48.01 1.03-.37 1.41z" fill="#00B2FF"/><path d="M29.2 13.76L21.23 5.8a2.71 2.71 0 00-3.82 0L4.8 18.4a2.69 2.69 0 000 3.83l7.97 7.97a2.69 2.69 0 003.82 0L29.2 17.6a2.69 2.69 0 000-3.84zm-.97 2.87l-12.6 12.6a1.33 1.33 0 01-1.9 0l-7.96-7.96a1.33 1.33 0 010-1.9l12.6-12.6a1.34 1.34 0 011.9 0l7.96 7.96a1.33 1.33 0 010 1.9z" fill="#00B2FF"/><path d="M22.29 13.68a.68.68 0 00-.97-.97l-.39.4a2.63 2.63 0 00-3.25.28c-.5.5-.75 1.18-.72 1.9a2.88 2.88 0 00.85 1.9c.55.55.62 1.38.14 1.85-.47.48-1.3.42-1.86-.13-.55-.55-.6-1.39-.13-1.86a.68.68 0 00-.97-.97c-.85.85-.94 2.2-.29 3.25l-.47.47a.68.68 0 00.97.97l.47-.47c.46.29.97.43 1.48.43.65 0 1.29-.24 1.77-.72 1-1 .94-2.7-.14-3.79a1.51 1.51 0 01-.45-1c-.02-.33.1-.64.31-.86.48-.47 1.31-.41 1.86.14s.61 1.38.14 1.86a.68.68 0 00.97.96c.85-.85.94-2.2.29-3.25l.39-.4zM15.37 25.01l-3.5-3.51a.68.68 0 00-.98.97l3.52 3.5a.68.68 0 00.96 0 .68.68 0 000-.96zM9.99 19.63a.69.69 0 00-.97 0 .69.69 0 000 .96.69.69 0 00.97 0 .69.69 0 000-.96z" fill="#00B2FF"/></symbol><symbol id="triangles"><mask id="a" maskUnits="userSpaceOnUse" x="0" y="-69" width="1920" height="950"><path fill="#C4C4C4" d="M0-69h1920v950H0z"/></mask><g mask="url(#a)"><path opacity=".2" d="M1656.84 277.584l-274.67 475.75-274.68-475.75h549.35z" stroke="#fff"/><path opacity=".2" d="M1377.15 475.75L1216.5 754l-160.65-278.25h321.3z" stroke="#fff"/><circle cx="1107" cy="277" r="5" fill="#fff"/><circle cx="1056" cy="476" r="5" fill="#fff"/><circle cx="1217" cy="754" r="5" fill="#fff"/><circle cx="1382" cy="753" r="5" fill="#fff"/><circle cx="1657" cy="277" r="5" fill="#fff"/></g></symbol><symbol id="vk"><path d="M19.48 15.13c-1.11-1.03-1.2-1.03-.24-2.2 1.19-1.5 2.77-3.4 1.34-3.4h-2.61c-.48 0-.55.32-.71.71-.64 1.5-1.9 3.47-2.38 3.15-.47-.31-.24-1.5-.24-3.38a.61.61 0 00-.15-.63c-.16-.16-.4-.32-.64-.32-.4-.08-.79-.16-1.19-.16-1.5 0-2.53.63-1.98.71 1.03.16.95 2.37.72 3.31-.4 1.66-1.98-1.26-2.7-2.76a.77.77 0 00-.79-.63H5.85c-.31 0-.55.08-.55.32 0 .4 1.98 4.25 3.8 6.22 1.82 1.9 3.64 1.74 4.91 1.74a.6.6 0 00.4-.16.6.6 0 00.15-.4c0-1.26.48-1.89 1.35-1.02.95.95 1.19 1.58 2.38 1.58h2.14c.55 0 .7-.16.7-.4.09-.55-.86-1.57-1.65-2.28zM13.85 0C21.22.16 27.08 6.07 27 13.24 26.92 20.4 20.82 26.08 13.46 26 6 25.92.07 20.17.07 13 .15 5.75 6.33-.08 13.85 0z" fill="currentColor"/></symbol></svg>