<svg width="30" height="37" fill="none" xmlns="http://www.w3.org/2000/svg"><path d="M3.85 12l-1.51-1.52a2.12 2.12 0 010-2.98 2.1 2.1 0 012.97 0l1.6 1.62a14.65 14.65 0 015.6-2.38v-2.1h-1.4a.7.7 0 01-.7-.7V2.1A2.1 2.1 0 0112.51 0h5.6c1.15 0 2.1.95 2.1 2.11v1.83a.7.7 0 01-.7.7h-1.4v2.1c2 .39 3.91 1.2 5.59 2.38l1.6-1.62a2.1 2.1 0 012.98 0c.81.82.81 2.16 0 2.98L26.77 12A14.8 14.8 0 0115.3 36 14.8 14.8 0 013.85 12zm.47-3.5a.7.7 0 00-1 0 .7.7 0 000 .99l1.46 1.45c.32-.33.66-.65 1.02-.96L4.32 8.5zM18.8 2.1a.7.7 0 00-.7-.7h-5.6a.7.7 0 00-.7.7v1.13h7V2.1zm-4.9 2.53v1.9c.93-.09 1.87-.09 2.8 0v-1.9h-2.8zM27.29 8.5a.7.7 0 00-1 0l-1.47 1.48c.35.3.7.63 1.02.96l1.45-1.45a.7.7 0 000-1zM15.3 34.6a13.39 13.39 0 002-26.58 13.44 13.44 0 00-4 0 13.25 13.25 0 00-7.99 4.4 13.39 13.39 0 009.99 22.18z" fill="#00B2FF"/><path d="M15.3 23.35a2.1 2.1 0 01-.7-4.1v-5.04a.7.7 0 111.4 0v5.04a2.11 2.11 0 01-.7 4.1zm0-2.81a.7.7 0 000 1.4.7.7 0 000-1.4z" fill="#00B2FF"/><path d="M7.85 13.82l.04-.04a10.52 10.52 0 014.45-2.66.7.7 0 01.4 1.35 9.1 9.1 0 00-3.35 1.83l.48.48a.7.7 0 01-.5 1.2.7.7 0 01-.5-.21l-.47-.48a9.08 9.08 0 00-2.16 5.25h.67a.7.7 0 010 1.4h-.67c.15 1.95.9 3.77 2.16 5.25l.48-.48a.7.7 0 01.99 0 .7.7 0 010 1l-.48.47a8.99 8.99 0 005.22 2.18v-.68a.7.7 0 111.4 0v.68a8.99 8.99 0 005.21-2.18l-.47-.47a.7.7 0 010-1 .7.7 0 01.99 0l.47.48a9.08 9.08 0 002.17-5.25h-.68a.7.7 0 01-.7-.7c0-.39.32-.7.7-.7h.68a9.08 9.08 0 00-2.17-5.25l-.47.48a.7.7 0 01-1 0 .7.7 0 010-1l.48-.47a9.1 9.1 0 00-3.34-1.83.7.7 0 01.4-1.35 10.52 10.52 0 014.45 2.66l.03.04a10.5 10.5 0 013.04 7.42c0 2.8-1.08 5.43-3.04 7.42l-.03.04-.04.03a10.4 10.4 0 01-7.38 3.06 10.4 10.4 0 01-7.38-3.06c-.02 0-.03-.02-.04-.03l-.03-.04a10.5 10.5 0 01-3.05-7.42c0-2.8 1.08-5.43 3.04-7.42z" fill="#00B2FF"/><path d="M15.3 12.1a.7.7 0 010-1.4c.4 0 .7.3.7.7a.7.7 0 01-.7.7z" fill="#00B2FF"/></svg>