<svg width="1892" height="1644" viewBox="0 0 1892 1644" fill="none" xmlns="http://www.w3.org/2000/svg">
<path d="M1312.62 789.625L836.874 1064.3L836.874 514.95L1312.62 789.625Z" stroke="#EBEBEB"/>
<circle cx="836.739" cy="514.198" r="5" transform="rotate(30 836.739 514.198)" fill="#F2F2F2"/>
<circle cx="836.896" cy="1063.93" r="5" transform="rotate(30 836.896 1063.93)" fill="#F2F2F2"/>
<path d="M297.208 812.738L297.208 1362.09L-178.543 1087.41L297.208 812.738Z" stroke="#EBEBEB"/>
<circle cx="296.896" cy="1361.88" r="5" transform="rotate(-30 296.896 1361.88)" fill="#F2F2F2"/>
<path d="M1668.56 926.777L1668.56 670.381L1890.61 798.579L1668.56 926.777Z" stroke="#EBEBEB"/>
<circle cx="297.053" cy="812.154" r="5" transform="rotate(-30 297.053 812.154)" fill="#F2F2F2"/>
<circle cx="1313.05" cy="789.198" r="5" transform="rotate(30 1313.05 789.198)" fill="#F2F2F2"/>
<path d="M425.594 254.381L425.594 510.777L203.549 382.579L425.594 254.381Z" stroke="#EBEBEB"/>
</svg>
